<?xml version="1.0"?>
<svg xmlns="http://www.w3.org/2000/svg" xmlns:xlink="http://www.w3.org/1999/xlink" version="1.1" id="Capa_1" x="0px" y="0px" viewBox="0 0 55.667 55.667" style="enable-background:new 0 0 55.667 55.667;" xml:space="preserve" width="512px" height="512px" class=""><g><g>
	<path d="M37.73,40.425l0.006-0.001l-0.099-1.227c-0.168-2.07-0.714-4.244-1.717-6.84c-0.283-0.733-0.441-1.561-0.505-2.397   c-0.141-1.846,0.223-3.743,1.053-4.816c0.162-0.21,0.296-0.444,0.429-0.679c0.557-0.983,0.868-2.16,0.863-3.409l0-0.001l0-0.001   c-0.001-0.099-0.005-0.19-0.011-0.282l-0.042-1.417l-0.027,0.007c-0.618-7.23-4.872-9.143-6.275-9.59   c-0.121-0.211-0.288-0.622-0.401-1.382c-0.008-0.057-0.028-0.108-0.04-0.163c1.083-0.361,1.869-0.965,1.869-1.894v-4   c0-1.722-2.693-2.333-5-2.333s-5,0.611-5,2.333v4c0,0.929,0.786,1.532,1.868,1.893c-0.013,0.054-0.032,0.106-0.04,0.162   c-0.113,0.764-0.28,1.174-0.438,1.406c-1.369,0.426-5.621,2.338-6.238,9.569l-0.036-0.01l-0.033,1.432   c-0.005,0.088-0.009,0.176-0.01,0.271c-0.009,1.548,0.45,3,1.292,4.09c0.753,0.974,1.134,2.629,1.091,4.308   c-0.017,0.672-0.102,1.347-0.257,1.984c-0.078,0.318-0.173,0.627-0.287,0.921c-0.251,0.649-0.473,1.271-0.668,1.872   c-0.585,1.803-0.923,3.414-1.049,4.968c-0.304,3.761-0.584,8.979-0.197,12.53c0.036,1.812,1.733,3.939,9.501,3.939   c6.521,0,10.436-1.471,10.5-3.938C38.181,48.545,37.992,44.034,37.73,40.425z M20.155,38.321c0.027-0.184,0.05-0.367,0.084-0.555   c0.053-0.297,0.123-0.604,0.194-0.911c0.042-0.184,0.078-0.364,0.126-0.552c0.088-0.342,0.197-0.699,0.307-1.057   c0.051-0.167,0.093-0.327,0.149-0.498c0.176-0.536,0.373-1.09,0.597-1.67c0.811-2.1,0.867-4.671,0.288-6.76   c-0.255-0.918-0.619-1.752-1.118-2.397c-0.006-0.008-0.011-0.018-0.017-0.026c-0.12-0.158-0.225-0.331-0.321-0.511   c-0.03-0.057-0.057-0.116-0.084-0.174c-0.071-0.15-0.133-0.307-0.188-0.469c-0.019-0.056-0.04-0.111-0.057-0.168   c-0.06-0.204-0.106-0.417-0.14-0.635c2.253,0.473,4.987,0.73,7.859,0.73c2.872,0,5.605-0.257,7.858-0.729   c-0.034,0.219-0.081,0.431-0.141,0.635c-0.017,0.057-0.038,0.112-0.057,0.168c-0.054,0.162-0.117,0.317-0.187,0.467   c-0.028,0.059-0.055,0.119-0.085,0.176c-0.101,0.19-0.21,0.372-0.337,0.537c-1.021,1.321-1.546,3.387-1.511,5.489   c0.021,1.261,0.243,2.535,0.681,3.668c0.225,0.582,0.422,1.136,0.598,1.673c0.055,0.167,0.095,0.322,0.145,0.485   c0.111,0.362,0.221,0.722,0.31,1.067c0.049,0.191,0.085,0.373,0.128,0.56c0.069,0.303,0.138,0.605,0.191,0.898   c0.036,0.198,0.06,0.39,0.088,0.584c0.028,0.19,0.051,0.38,0.072,0.567c-2.17,0.489-4.884,0.754-7.753,0.754   c-2.869,0-5.583-0.266-7.753-0.754C20.102,38.717,20.126,38.52,20.155,38.321z M24.834,2.551C25.15,2.354,26.145,2,27.834,2   s2.684,0.354,3,0.551v3.564c-0.258,0.16-0.977,0.424-2.15,0.516c-0.553,0.04-1.149,0.04-1.7,0c-1.172-0.092-1.892-0.356-2.15-0.516   V2.551z M24.819,11.704c0.504-0.157,0.922-0.491,1.177-0.938c0.3-0.522,0.517-1.224,0.708-2.147   c0.026,0.002,0.056,0.001,0.083,0.003c0.351,0.029,0.703,0.044,1.047,0.044c0.392,0,0.769-0.017,1.192,0.014   c0.127,0.859,0.344,1.561,0.644,2.084c0.256,0.449,0.675,0.782,1.18,0.939c1.078,0.335,4.454,1.895,4.867,8.178   c-2.189,0.507-4.948,0.785-7.882,0.785c-2.933,0-5.692-0.278-7.882-0.786C20.364,13.598,23.741,12.039,24.819,11.704z    M35.841,51.557l-0.006,0.11c0,0.513-2.093,2-8.501,2c-5.934,0-7.502-1.309-7.502-2l-0.006-0.11   c-0.327-2.938-0.163-7.161,0.081-10.638c2.269,0.483,5.029,0.748,7.927,0.748s5.658-0.265,7.927-0.748   C36.004,44.394,36.168,48.615,35.841,51.557z" data-original="#000000" class="active-path" data-old_color="#FDEBEB" fill="#FFFFFF"/>
	<path d="M27.646,4.87c0.553,0,1-0.447,1-1s-0.447-1-1-1h-1c-0.553,0-1,0.447-1,1s0.447,1,1,1H27.646z" data-original="#000000" class="active-path" data-old_color="#FDEBEB" fill="#FFFFFF"/>
	<path d="M26.295,49.658c-1.886,0.074-2.565-0.367-2.768-0.563c-0.176-0.169-0.194-0.327-0.199-0.327c0,0,0,0.001-0.001,0.003   l0.007-1.104c0-0.553-0.447-1-1-1s-1,0.447-1,1v0.948c-0.031,0.472,0.13,1.198,0.691,1.805c0.768,0.828,2.064,1.246,3.86,1.246   c0.158,0,0.321-0.003,0.487-0.01c0.552-0.021,0.981-0.486,0.96-1.038C27.311,50.065,26.804,49.635,26.295,49.658z" data-original="#000000" class="active-path" data-old_color="#FDEBEB" fill="#FFFFFF"/>
	<path d="M22.334,45.667c0.553,0,1-0.447,1-1v-1.01c0-0.553-0.447-1-1-1s-1,0.447-1,1v1.01   C21.334,45.22,21.781,45.667,22.334,45.667z" data-original="#000000" class="active-path" data-old_color="#FDEBEB" fill="#FFFFFF"/>
	<path d="M23.157,18.651c0.061,0.011,0.119,0.016,0.178,0.016c0.476,0,0.896-0.34,0.983-0.823c0.399-2.233,2.371-3.236,2.455-3.278   c0.494-0.242,0.7-0.838,0.461-1.334c-0.24-0.495-0.834-0.703-1.336-0.465c-0.12,0.059-2.966,1.468-3.549,4.724   C22.252,18.034,22.614,18.554,23.157,18.651z" data-original="#000000" class="active-path" data-old_color="#FDEBEB" fill="#FFFFFF"/>
</g></g> </svg>
